<!--?xml version="1.0" standalone="no"?-->              <svg id="sw-js-blob-svg" viewBox="0 0 100 100" xmlns="http://www.w3.org/2000/svg">                    <defs>                         <linearGradient id="sw-gradient" x1="0" x2="1" y1="1" y2="0">                            <stop id="stop1" stop-color="rgba(248, 117, 55, 1)" offset="0%"></stop>                            <stop id="stop2" stop-color="rgba(251, 168, 31, 1)" offset="100%"></stop>                        </linearGradient>                    </defs>                <path fill="url(#sw-gradient)" d="M22.9,-29C27.8,-23.3,28.4,-14.2,28.6,-6.1C28.7,2,28.4,9.1,25.9,16.2C23.3,23.3,18.5,30.4,12,32.6C5.5,34.8,-2.6,32.2,-11.1,29.5C-19.5,26.8,-28.3,24.1,-34,17.9C-39.6,11.6,-42.3,1.9,-39.9,-6.3C-37.6,-14.5,-30.4,-21.1,-22.9,-26.3C-15.5,-31.6,-7.7,-35.5,0.7,-36.3C9,-37.1,18.1,-34.7,22.9,-29Z" width="100%" height="100%" transform="translate(50 50)" stroke-width="0" style="transition: all 0.3s ease 0s;"></path>              </svg>